<?xml version="1.0" standalone="no"?>
<!DOCTYPE svg PUBLIC "-//W3C//DTD SVG 20010904//EN"
 "http://www.w3.org/TR/2001/REC-SVG-20010904/DTD/svg10.dtd">
<svg version="1.0" xmlns="http://www.w3.org/2000/svg"
 width="276px" height="36px" viewBox="0 0 919.000000 357.000000"
 preserveAspectRatio="xMidYMid meet">

<g transform="translate(0.000000,357.000000) scale(0.100000,-0.100000)"
fill="#fff" stroke="none">
<path d="M0 1785 l0 -1785 4595 0 4595 0 0 1785 0 1785 -4595 0 -4595 0 0
-1785z m975 329 c88 -13 175 -26 194 -30 l34 -5 -6 -162 c-3 -89 -6 -162 -6
-162 -1 0 -99 1 -219 3 -188 4 -223 2 -250 -12 -25 -13 -32 -23 -32 -46 0 -18
7 -33 18 -38 9 -5 91 -12 182 -15 91 -3 181 -11 200 -18 127 -45 177 -147 168
-345 -3 -78 -9 -109 -27 -144 -47 -91 -115 -141 -242 -177 -54 -15 -100 -18
-289 -17 -216 0 -229 1 -335 30 l-110 29 -3 139 -3 138 23 -7 c13 -4 121 -10
241 -12 190 -5 220 -3 242 11 31 20 33 58 5 86 -23 23 -21 23 -205 24 -158 2
-216 15 -277 66 -72 60 -117 210 -105 350 19 211 150 320 412 340 114 9 191 4
390 -26z m3738 11 c150 -26 258 -96 315 -202 53 -101 66 -169 67 -348 0 -88
-3 -168 -7 -177 -7 -17 -33 -18 -344 -18 l-336 0 6 -27 c16 -68 114 -113 245
-113 84 0 240 21 341 44 35 8 66 14 68 12 2 -2 -6 -67 -18 -144 l-22 -141
-107 -25 c-199 -48 -527 -59 -656 -23 -75 21 -151 63 -196 108 -53 53 -104
161 -119 252 -17 96 -7 371 15 452 55 199 172 312 362 350 90 17 288 18 386 0z
m-2569 -10 c142 -30 264 -113 315 -213 26 -52 26 -60 -3 -113 -13 -24 -119
-224 -236 -444 -116 -220 -217 -403 -223 -408 -19 -13 -212 3 -294 24 -202 51
-335 190 -378 394 -19 91 -19 299 0 390 20 97 75 203 131 254 56 52 146 95
239 115 95 20 358 20 449 1z m1381 -5 c93 -11 289 -54 314 -69 11 -7 12 -41 6
-189 l-7 -180 -47 13 c-117 34 -326 46 -392 23 -95 -33 -133 -99 -133 -233 -1
-152 25 -190 134 -202 l60 -6 0 117 0 116 210 0 210 0 0 -219 0 -220 -55 -26
c-258 -122 -573 -140 -763 -43 -208 105 -309 363 -258 657 37 209 153 359 334
430 100 40 223 49 387 31z m2545 -200 l0 -190 -207 -2 -208 -3 0 -50 0 -50
208 -3 207 -2 0 -165 0 -165 -210 0 c-115 0 -209 -3 -209 -7 1 -5 1 -74 0
-155 l-1 -148 -235 0 -235 0 0 565 0 565 445 0 445 0 0 -190z m588 -377 l-3
-558 -242 -3 -243 -2 0 560 0 560 245 0 245 0 -2 -557z m512 58 c44 -22 86
-82 99 -139 l9 -43 -40 3 c-36 3 -42 7 -52 38 -13 39 -66 80 -105 80 -43 0
-90 -36 -114 -88 -18 -38 -22 -65 -22 -147 0 -82 4 -109 22 -147 25 -54 71
-88 120 -88 46 0 98 48 112 104 16 66 17 66 -49 66 -41 0 -60 4 -61 13 0 6 -2
24 -4 40 l-4 27 100 0 99 0 0 -160 0 -160 -24 0 c-19 0 -26 7 -31 30 l-7 31
-38 -35 c-61 -55 -127 -59 -202 -10 -124 80 -158 348 -64 508 57 97 157 127
256 77z m870 0 c40 -20 94 -94 112 -154 7 -23 13 -92 13 -153 0 -107 -1 -113
-35 -180 -46 -89 -96 -126 -172 -127 -127 -2 -211 104 -225 283 -18 250 136
417 307 331z m-413 -8 c52 -24 77 -86 70 -170 -3 -48 -11 -72 -31 -98 l-27
-34 20 -20 c24 -24 28 -40 35 -137 3 -39 9 -85 12 -102 6 -32 6 -32 -34 -32
-48 0 -52 8 -52 96 0 73 -18 127 -48 143 -12 6 -52 11 -91 11 l-71 0 0 -125 0
-125 -40 0 -40 0 0 305 0 305 131 0 c102 0 139 -4 166 -17z m663 -180 c1 -109
5 -218 9 -243 12 -58 48 -90 102 -90 97 0 109 34 109 315 l0 215 40 0 40 0 0
-223 c0 -259 -9 -306 -65 -356 -94 -82 -229 -57 -285 54 -24 48 -25 58 -28
288 l-4 237 41 0 41 0 0 -197z m630 179 c51 -28 75 -82 75 -172 0 -57 -5 -83
-20 -109 -36 -60 -65 -74 -165 -79 l-90 -4 0 -114 0 -114 -40 0 -40 0 0 305 0
305 123 0 c100 0 129 -3 157 -18z"/>
<path d="M4511 1800 c-18 -4 -45 -17 -59 -27 -26 -19 -56 -88 -48 -109 5 -14
283 -19 303 -6 20 13 -3 77 -38 106 -27 23 -89 47 -114 45 -5 -1 -25 -5 -44
-9z"/>
<path d="M1854 1711 c-69 -42 -101 -124 -92 -235 10 -121 59 -170 167 -163 56
3 67 7 91 34 58 65 63 232 9 319 -37 61 -116 81 -175 45z"/>
<path d="M7894 1511 c-108 -66 -108 -366 0 -432 63 -39 133 -10 169 69 18 38
22 65 22 147 0 82 -4 109 -22 147 -36 79 -106 108 -169 69z"/>
<path d="M7410 1414 l0 -96 85 3 c107 5 120 15 120 100 0 80 -12 89 -122 89
l-83 0 0 -96z"/>
<path d="M8720 1410 l0 -100 69 0 c59 0 74 4 98 24 24 21 28 31 28 79 0 82
-17 97 -117 97 l-78 0 0 -100z"/>
</g>
</svg>
